<svg width="48" height="48" viewBox="0 0 48 48" fill="none" xmlns="http://www.w3.org/2000/svg">
<g clip-path="url(#clip0_37918_5384)">
<path d="M23.25 0.796875V1.59375H24H24.75V1.00312C24.75 0.684375 24.7781 0.328125 24.8062 0.20625C24.8625 -1.19209e-07 24.8531 -1.19209e-07 24.0562 -1.19209e-07H23.25V0.796875Z" fill="#232323"/>
<path d="M26.4001 0.422656C26.2595 1.35078 26.2501 1.66953 26.372 1.71641C26.4376 1.74453 26.7751 1.79141 27.1126 1.82891L27.7314 1.89453L27.8345 1.29453C28.0126 0.272656 28.0407 0.319531 27.1876 0.225781L26.4376 0.132031L26.4001 0.422656Z" fill="#232323"/>
<path d="M20.5312 0.253906C20.3531 0.282031 20.1656 0.328906 20.1281 0.375781C20.0812 0.413281 20.1 0.769531 20.1656 1.17266L20.2781 1.89453L20.8031 1.82891C21.8062 1.70703 21.7593 1.75391 21.6937 1.04141C21.6656 0.703906 21.6281 0.366406 21.6 0.300781C21.5718 0.188281 21.2343 0.178906 20.5312 0.253906Z" fill="#232323"/>
<path d="M17.6531 0.872656C17.2781 0.975781 16.9688 1.10703 16.9688 1.16328C16.9688 1.21953 17.0531 1.56641 17.1656 1.93203L17.3625 2.59766L18.0281 2.41016C18.4031 2.30703 18.7219 2.21328 18.7406 2.19453C18.7969 2.13828 18.45 0.657031 18.3844 0.666406C18.3562 0.675781 18.0187 0.769531 17.6531 0.872656Z" fill="#232323"/>
<path d="M29.5407 0.871094C29.4189 1.18984 29.2126 2.15547 29.2595 2.19297C29.2782 2.21172 29.597 2.31484 29.972 2.41797L30.647 2.60547L30.8814 1.84609C31.0126 1.42422 31.1064 1.07734 31.097 1.06797C31.0876 1.06797 30.7501 0.974219 30.347 0.861719L29.6157 0.664844L29.5407 0.871094Z" fill="#232323"/>
<path d="M14.6719 1.90145C14.3156 2.06082 13.9969 2.20145 13.9781 2.2202C13.9406 2.24832 14.3719 3.31707 14.5219 3.54207C14.5781 3.63582 14.7281 3.6077 15.1969 3.41082C15.525 3.2702 15.825 3.12957 15.8625 3.10145C15.9281 3.0452 15.4781 1.74207 15.3656 1.6577C15.3469 1.63895 15.0375 1.75145 14.6719 1.90145Z" fill="#232323"/>
<path d="M32.4094 2.18305C32.0344 3.1018 32.0251 3.07367 32.7563 3.38305C33.1126 3.53305 33.4126 3.64555 33.4219 3.63617C33.4407 3.61742 33.6001 3.29867 33.7876 2.92367L34.1344 2.24867L33.6844 2.0518C33.4313 1.94867 33.1032 1.79867 32.9344 1.73305L32.6344 1.61117L32.4094 2.18305Z" fill="#232323"/>
<path d="M11.8406 3.3375C11.5219 3.51562 11.2313 3.70312 11.1938 3.75937C11.1375 3.85312 11.8688 5.0625 11.9906 5.0625C12.0375 5.0625 13.1156 4.43437 13.2 4.35938C13.2375 4.32187 12.525 3 12.4688 3C12.4406 3 12.1594 3.15 11.8406 3.3375Z" fill="#232323"/>
<path d="M35.2875 3.44088C35.1469 3.68464 34.9782 3.99401 34.9032 4.10651C34.8282 4.22839 34.7813 4.34089 34.8 4.35026C35.1094 4.58464 36.0188 5.06276 36.0844 5.02526C36.1313 4.99714 36.3375 4.70651 36.5344 4.37839C36.8625 3.85339 36.8907 3.76901 36.7594 3.68464C36.675 3.63776 36.3657 3.45964 36.075 3.29088L35.5407 2.99089L35.2875 3.44088Z" fill="#232323"/>
<path d="M23.1469 3.69375C21.5438 5.1 20.1281 7.18125 19.5469 9C18.6 11.9438 19.7438 15.3375 22.6688 18.2625L23.2594 18.8531L23.2313 19.8469L23.2031 20.85L22.7344 20.2125C21.8813 19.05 20.3719 18.0281 18.7969 17.5406C17.5312 17.1469 16.9219 17.0531 15.1688 16.9969L13.4156 16.9406L13.1344 17.2313L12.8438 17.5125V18.9094C12.8438 22.7156 13.9969 25.425 16.2844 27.0094C17.8594 28.0969 20.2313 28.7813 22.4344 28.7813C22.9313 28.7813 23.175 28.8188 23.2125 28.9031C23.2313 28.9688 23.2406 30.0281 23.2313 31.2656L23.2031 33.5063L22.7438 32.8781C22.2281 32.1656 21.15 31.275 20.25 30.8063C19.5656 30.4406 18.0938 29.9719 17.1094 29.7938C16.7531 29.7281 15.7406 29.6719 14.8781 29.6719H13.2938L13.0688 29.9344C12.8531 30.1875 12.8438 30.2531 12.8438 31.575C12.8438 35.2781 13.9969 38.0719 16.1625 39.6C17.7844 40.7531 19.5188 41.2875 22.0312 41.4188L23.2031 41.4844L23.2313 43.1531L23.25 44.8125H24H24.75L24.7688 43.1438L24.7969 41.4844L25.9219 41.4281C26.5406 41.4 27.2156 41.3438 27.4219 41.3063C30.8438 40.7063 32.85 39.3563 34.0781 36.8156C34.8094 35.3063 35.1562 33.5719 35.1562 31.4531C35.1562 30.2625 35.1469 30.1875 34.9313 29.9344L34.7063 29.6719H33.1219C31.4719 29.6813 30.75 29.7656 29.4469 30.15C27.6281 30.6656 26.1844 31.6125 25.2563 32.8875L24.7969 33.5063L24.7688 31.2656C24.7594 30.0281 24.7688 28.9688 24.7875 28.9031C24.825 28.8188 25.0688 28.7813 25.5656 28.7813C27.0375 28.7813 28.9031 28.4063 30.1875 27.8531C31.9781 27.0844 33.1781 25.95 34.0312 24.2344C34.8 22.6781 35.1562 20.9719 35.1562 18.7875V17.5125L34.8844 17.2406L34.6125 16.9688H33.3563C31.7531 16.9688 30.6656 17.1094 29.4938 17.4563C27.4125 18.075 26.2781 18.8531 24.9656 20.5875L24.7594 20.8594V19.8375L24.75 18.825L25.6219 17.9063C26.9531 16.5 27.8906 15.0281 28.3969 13.5281C29.4188 10.4813 28.2656 7.05938 25.1906 4.05C24.0938 2.98125 23.9906 2.9625 23.1469 3.69375ZM24.6188 5.74688C25.35 6.525 25.9688 7.39688 26.4188 8.30625C26.925 9.3 27.0938 9.91875 27.1594 10.9219C27.2625 12.4875 26.6438 14.1188 25.3125 15.825L24.6094 16.7344L24.0375 16.7625L23.4563 16.7906L23.0625 16.3406C22.0594 15.1969 21.1594 13.5188 20.8969 12.2625C20.6344 11.0531 20.9625 9.3375 21.6938 8.025C22.2563 7.0125 23.7563 5.15625 24 5.15625C24.0375 5.15625 24.3188 5.41875 24.6188 5.74688ZM16.8188 18.7125C19.3781 19.1156 21.1406 20.2688 22.0594 22.1438C22.6781 23.4 23.0625 25.125 23.0625 26.6438V27.1875H22.3406C20.7844 27.1875 18.9281 26.7188 17.6625 26.0156C15.7313 24.9469 14.5969 22.7156 14.4656 19.7531L14.4094 18.5625H15.1406C15.5438 18.5625 16.2938 18.6281 16.8188 18.7125ZM33.5625 19.3313C33.5625 20.2688 33.3563 21.5719 33.0844 22.4063C32.4844 24.2531 31.5094 25.4344 29.9344 26.2313C28.8844 26.775 26.9813 27.1875 25.5938 27.1875H24.9375V26.4563C24.9375 24.1688 25.7625 21.8531 27.0281 20.5875C28.2469 19.3688 30.4219 18.6094 32.7469 18.5719L33.5625 18.5625V19.3313ZM16.8188 31.3688C19.7906 31.8375 21.675 33.3375 22.5281 35.9063C22.7812 36.6656 22.9688 37.7813 23.0344 38.8406L23.0906 39.8719L21.8813 39.8156C20.4 39.75 19.1344 39.45 18.0094 38.8875C15.8438 37.8188 14.6063 35.5406 14.4656 32.4094L14.4094 31.2188H15.1406C15.5438 31.2188 16.2938 31.2844 16.8188 31.3688ZM33.5344 32.3625C33.4406 34.4344 32.7281 36.45 31.6875 37.6125C30.4969 38.9438 28.0781 39.8438 25.65 39.8438H24.9094L24.9656 38.7375C25.1438 35.5875 26.325 33.3375 28.3688 32.2781C29.6531 31.6031 31.1438 31.2563 32.8031 31.2281L33.5906 31.2188L33.5344 32.3625Z" fill="#00AD0C"/>
<path d="M1.7625 4.91172C1.26562 5.04297 0.76875 5.39922 0.46875 5.82109C0.01875 6.43984 0 6.69297 0 11.2492C0 16.0023 0.009375 16.0492 0.61875 16.7617C1.05 17.2773 1.59375 17.5211 2.46563 17.5867L3.1875 17.6523L3.20625 29.5211L3.23438 41.3898L3.46875 41.8398C3.9 42.7023 4.62188 43.143 5.57812 43.1523C6.5625 43.1523 7.3125 42.6742 7.74375 41.7648L7.96875 41.2961V29.4742V17.6523L8.6625 17.5961C9.7875 17.5117 10.5188 17.0805 10.9313 16.2461C11.1 15.918 11.1094 15.5898 11.1375 11.343C11.1562 8.31484 11.1375 6.68359 11.0625 6.44922C10.9219 5.95234 10.2094 5.20234 9.675 4.99609C9.01875 4.74297 8.29688 4.78984 7.70625 5.10859L7.21875 5.37109L6.8625 5.17422C6.0375 4.71484 4.99688 4.72422 4.30313 5.19297L3.98438 5.40859L3.65625 5.19297C3.34688 4.98672 2.6625 4.78047 2.34375 4.78984C2.26875 4.78984 2.00625 4.84609 1.7625 4.91172ZM2.98125 6.71172C3.1875 6.94609 3.1875 6.98359 3.1875 9.52422C3.1875 12.6086 3.225 12.7492 4.03125 12.7492C4.17188 12.7492 4.3875 12.6648 4.50938 12.5711L4.73438 12.393L4.78125 9.61797C4.82812 6.90859 4.82812 6.84297 5.03438 6.63672C5.325 6.35547 5.82188 6.35547 6.14063 6.65547L6.375 6.87109V9.43047C6.375 11.9805 6.4125 12.2992 6.70313 12.5898C6.95625 12.843 7.54688 12.7961 7.77188 12.5055C7.95938 12.2617 7.96875 12.1398 7.96875 9.68359C7.96875 6.80547 7.99688 6.66484 8.56875 6.46797C8.83125 6.38359 8.94375 6.39297 9.16875 6.50547C9.31875 6.58047 9.46875 6.72109 9.50625 6.79609C9.53438 6.88047 9.5625 8.87734 9.5625 11.2398V15.5336L9.31875 15.7586C9.09375 15.9648 8.99063 15.9836 7.96875 16.0117C6.92813 16.0398 6.85313 16.0586 6.6375 16.2836L6.42188 16.518L6.39375 28.818L6.375 41.1273L6.14063 41.343C5.82188 41.643 5.325 41.643 5.03438 41.3617L4.82812 41.1461L4.8 28.8461C4.78125 16.9023 4.77188 16.5367 4.59375 16.3117C4.425 16.0867 4.35938 16.0773 3.24375 16.0305C2.175 15.9836 2.04375 15.9648 1.85625 15.768L1.64063 15.5523L1.6125 11.2773C1.59375 7.50859 1.60313 6.98359 1.73438 6.77734C2.03438 6.31797 2.59688 6.28984 2.98125 6.71172Z" fill="#232323"/>
<path d="M41.4749 4.9207C37.8186 5.71758 35.7655 10.9113 37.4155 15.1957C37.8843 16.4051 38.9155 17.7926 39.7218 18.2895L40.0311 18.4863V29.8863V41.2957L40.2561 41.7645C40.5093 42.3176 41.0811 42.8613 41.5874 43.0395C42.0655 43.1988 42.8999 43.1895 43.3218 43.0113C43.8093 42.7957 44.2686 42.3551 44.5311 41.8395L44.7655 41.3895L44.7936 29.9426L44.8124 18.4957L45.3749 18.0551C47.4655 16.4332 48.4968 12.7863 47.7093 9.78633C47.0343 7.20821 45.3468 5.36133 43.2655 4.9207C42.478 4.75195 42.2249 4.75195 41.4749 4.9207ZM43.6311 6.6832C46.5843 8.04258 47.353 13.3863 44.9999 16.2082C44.7468 16.5082 44.278 16.9301 43.9405 17.1363C43.6124 17.3426 43.3124 17.5863 43.2749 17.6707C43.2468 17.7551 43.2186 23.0238 43.2186 29.3707C43.2186 38.4926 43.1905 40.9676 43.0968 41.1551C42.9186 41.502 42.5343 41.6613 42.1499 41.5301C41.9811 41.4738 41.7936 41.3332 41.728 41.2207C41.653 41.0707 41.6155 38.0051 41.5968 29.3613L41.578 17.6988L41.278 17.4551C41.1186 17.3145 40.7718 17.052 40.5093 16.8738C39.6186 16.2551 38.9624 15.1582 38.6061 13.6863C38.3343 12.5426 38.3999 10.7707 38.7468 9.69258C39.5905 7.11446 41.7186 5.81133 43.6311 6.6832Z" fill="#232323"/>
<path d="M11.4937 43.5646L11.0906 44.2021L11.7562 44.5958C12.1218 44.8114 12.45 44.9614 12.4875 44.9239C12.5812 44.8208 13.2281 43.6583 13.2 43.6396C13.1062 43.5458 12.0375 42.9364 11.9718 42.9364C11.9343 42.9364 11.7187 43.2177 11.4937 43.5646Z" fill="#232323"/>
<path d="M35.3906 43.2743C35.0812 43.4618 34.8187 43.6211 34.8 43.6399C34.7812 43.6586 35.3906 44.8493 35.4937 44.9899C35.5312 45.0368 36.7312 44.3524 36.7969 44.2399C36.8625 44.1461 36.1219 42.9368 36.0094 42.9368C35.9812 42.9461 35.7 43.0961 35.3906 43.2743Z" fill="#232323"/>
<path d="M14.2219 45.0461L13.875 45.7492L14.0812 45.8336C14.2031 45.8805 14.5406 46.0211 14.8312 46.1523L15.3656 46.3867L15.5906 45.8055C15.9562 44.8961 15.975 44.9242 15.2531 44.6148C14.8969 44.4648 14.5969 44.343 14.5875 44.343C14.5781 44.343 14.4187 44.6617 14.2219 45.0461Z" fill="#232323"/>
<path d="M32.7469 44.6156C32.4282 44.7563 32.1375 44.8875 32.1188 44.9156C32.0719 44.9625 32.5782 46.3594 32.6438 46.3594C32.8125 46.3406 34.0313 45.7781 34.0313 45.7125C34.0313 45.5719 33.45 44.3438 33.3844 44.3531C33.3563 44.3531 33.0657 44.475 32.7469 44.6156Z" fill="#232323"/>
<path d="M29.9532 45.6001C29.597 45.6939 29.2782 45.797 29.2595 45.8158C29.2407 45.8251 29.297 46.1814 29.3907 46.5939C29.522 47.1845 29.597 47.3439 29.7001 47.297C29.7751 47.2689 30.1126 47.1751 30.4407 47.1001C31.1251 46.922 31.1251 46.9126 30.8251 46.022L30.6095 45.4126L29.9532 45.6001Z" fill="#232323"/>
<path d="M17.2969 45.5803C17.025 46.3397 16.9031 46.8928 16.9969 46.9303C17.2312 47.0147 18.4125 47.3428 18.4219 47.3147C18.4687 47.2585 18.75 46.021 18.75 45.9085C18.75 45.8335 18.525 45.721 18.1875 45.6272C17.5219 45.4397 17.3531 45.4303 17.2969 45.5803Z" fill="#232323"/>
<path d="M20.1655 46.7047C19.9874 47.7266 19.9593 47.6797 20.8124 47.7734L21.5624 47.8672L21.5999 47.5766C21.7405 46.6484 21.7499 46.3297 21.628 46.2828C21.5624 46.2547 21.2249 46.2078 20.8874 46.1703L20.2686 46.1047L20.1655 46.7047Z" fill="#232323"/>
<path d="M26.7844 46.2195C26.5312 46.2664 26.3156 46.3133 26.2969 46.332C26.2781 46.3508 26.2875 46.6977 26.3156 47.1008L26.3719 47.832L27.0844 47.7758C27.4781 47.7383 27.8344 47.6727 27.8719 47.6352C27.9187 47.5883 27.9 47.232 27.8437 46.8383C27.7125 46.0414 27.75 46.0602 26.7844 46.2195Z" fill="#232323"/>
<path d="M23.2313 47.1281C23.2126 47.5312 23.2126 47.8875 23.2313 47.925C23.2501 47.9719 23.597 48 24.0095 48H24.7501V47.2031V46.4062H24.0095H23.2688L23.2313 47.1281Z" fill="#232323"/>
</g>
<defs>
<clipPath id="clip0_37918_5384">
<rect width="48" height="48" fill="white"/>
</clipPath>
</defs>
</svg>
